<?xml version="1.0" encoding="utf-8"?>
<!-- Generator: Adobe Illustrator 24.0.3, SVG Export Plug-In . SVG Version: 6.00 Build 0)  -->
<svg version="1.1" id="Layer_1" xmlns="http://www.w3.org/2000/svg" xmlns:xlink="http://www.w3.org/1999/xlink" x="0px" y="0px"
	 viewBox="0 0 500 500" style="enable-background:new 0 0 500 500;" xml:space="preserve">
<style type="text/css">
	.st0{fill:#FFFFFF;enable-background:new    ;}
	.st1{fill:#F0B90B;}
</style>
<g id="bscscan-logo-circle">
	<path id="Path_1" class="st0" d="M163.1,242.5c0-7,5.7-12.7,12.7-12.7c0,0,0,0,0.1,0l21.1,0.1c7,0,12.7,5.7,12.7,12.7l0,0v79.8
		c2.4-0.7,5.4-1.5,8.8-2.2c4.8-1.1,8.2-5.4,8.2-10.3v-99c0-7,5.7-12.7,12.7-12.7h21.2c7,0,12.7,5.7,12.7,12.7v91.9
		c0,0,5.3-2.1,10.5-4.3c3.9-1.7,6.5-5.5,6.5-9.7V179.1c0-7,5.7-12.7,12.7-12.7h21.1c7,0,12.7,5.7,12.7,12.7v90.2
		c18.3-13.3,36.9-29.3,51.7-48.5c4.3-5.7,5.6-13.1,3.2-19.9C364.4,123,279.2,81.8,201.3,108.9C123.4,136,82.2,221.1,109.3,299.1
		c3.1,8.8,6.9,17.3,11.6,25.4c3.7,6.3,10.7,10,18,9.3c4-0.4,9-0.8,14.9-1.5c5.3-0.6,9.4-5.1,9.4-10.5L163.1,242.5"/>
	<path id="Path_2" class="st1" d="M162.7,370.5c66.7,48.5,160.2,33.8,208.7-32.9C390,312,400,281.2,400,249.6
		c0-3.4-0.2-6.8-0.4-10.2C345,320.8,244.2,358.9,162.7,370.5"/>
</g>
</svg>
